<svg width="553" height="553" viewBox="0 0 553 553" fill="none" xmlns="http://www.w3.org/2000/svg">
<circle cx="276.5" cy="276.5" r="276.5" fill="#171717"/>
<path d="M262.271 163H275.278H288.285L343 462H203L262.271 163Z" fill="#FFDD00"/>
<ellipse cx="276.5" cy="177.5" rx="84.5" ry="85.5" fill="#FFDD00"/>
<path d="M274.043 169.725C274.043 169.668 274.054 169.619 274.077 169.577C274.1 169.534 274.131 169.501 274.171 169.478C274.212 169.455 274.258 169.443 274.31 169.443C274.377 169.443 274.433 169.459 274.476 169.492C274.52 169.525 274.549 169.57 274.563 169.628H274.465C274.456 169.595 274.437 169.568 274.41 169.549C274.383 169.53 274.35 169.52 274.31 169.52C274.258 169.52 274.216 169.538 274.184 169.574C274.152 169.609 274.136 169.66 274.136 169.725C274.136 169.791 274.152 169.842 274.184 169.878C274.216 169.914 274.258 169.932 274.31 169.932C274.35 169.932 274.383 169.923 274.41 169.904C274.437 169.885 274.455 169.859 274.465 169.824H274.563C274.548 169.88 274.519 169.925 274.475 169.959C274.431 169.992 274.376 170.009 274.31 170.009C274.258 170.009 274.212 169.997 274.171 169.974C274.131 169.951 274.1 169.918 274.077 169.875C274.054 169.832 274.043 169.782 274.043 169.725ZM274.65 169.724C274.65 169.668 274.662 169.619 274.684 169.577C274.707 169.534 274.738 169.501 274.777 169.478C274.817 169.455 274.862 169.443 274.91 169.443C274.958 169.443 275 169.453 275.035 169.474C275.071 169.495 275.097 169.521 275.114 169.552V169.452H275.206V170H275.114V169.898C275.096 169.93 275.069 169.957 275.033 169.978C274.998 169.999 274.957 170.009 274.909 170.009C274.861 170.009 274.817 169.997 274.777 169.973C274.738 169.949 274.707 169.915 274.684 169.872C274.662 169.829 274.65 169.779 274.65 169.724ZM275.114 169.725C275.114 169.684 275.106 169.648 275.089 169.617C275.073 169.586 275.05 169.563 275.021 169.547C274.993 169.53 274.962 169.522 274.928 169.522C274.894 169.522 274.863 169.53 274.835 169.546C274.807 169.562 274.785 169.585 274.768 169.616C274.752 169.647 274.743 169.683 274.743 169.724C274.743 169.766 274.752 169.803 274.768 169.834C274.785 169.865 274.807 169.888 274.835 169.905C274.863 169.921 274.894 169.929 274.928 169.929C274.962 169.929 274.993 169.921 275.021 169.905C275.05 169.888 275.073 169.865 275.089 169.834C275.106 169.803 275.114 169.766 275.114 169.725ZM275.326 169.725C275.326 169.668 275.338 169.619 275.36 169.577C275.383 169.534 275.414 169.501 275.454 169.478C275.495 169.455 275.541 169.443 275.593 169.443C275.661 169.443 275.716 169.459 275.759 169.492C275.803 169.525 275.832 169.57 275.846 169.628H275.748C275.739 169.595 275.721 169.568 275.693 169.549C275.667 169.53 275.633 169.52 275.593 169.52C275.541 169.52 275.499 169.538 275.467 169.574C275.435 169.609 275.419 169.66 275.419 169.725C275.419 169.791 275.435 169.842 275.467 169.878C275.499 169.914 275.541 169.932 275.593 169.932C275.633 169.932 275.667 169.923 275.693 169.904C275.72 169.885 275.738 169.859 275.748 169.824H275.846C275.832 169.88 275.802 169.925 275.758 169.959C275.714 169.992 275.659 170.009 275.593 170.009C275.541 170.009 275.495 169.997 275.454 169.974C275.414 169.951 275.383 169.918 275.36 169.875C275.338 169.832 275.326 169.782 275.326 169.725ZM275.934 169.724C275.934 169.668 275.945 169.619 275.968 169.577C275.99 169.534 276.021 169.501 276.061 169.478C276.101 169.455 276.145 169.443 276.194 169.443C276.242 169.443 276.283 169.453 276.319 169.474C276.354 169.495 276.38 169.521 276.398 169.552V169.452H276.49V170H276.398V169.898C276.38 169.93 276.353 169.957 276.317 169.978C276.281 169.999 276.24 170.009 276.193 170.009C276.144 170.009 276.1 169.997 276.061 169.973C276.021 169.949 275.99 169.915 275.968 169.872C275.945 169.829 275.934 169.779 275.934 169.724ZM276.398 169.725C276.398 169.684 276.389 169.648 276.373 169.617C276.356 169.586 276.333 169.563 276.305 169.547C276.277 169.53 276.246 169.522 276.212 169.522C276.178 169.522 276.147 169.53 276.119 169.546C276.091 169.562 276.068 169.585 276.052 169.616C276.035 169.647 276.027 169.683 276.027 169.724C276.027 169.766 276.035 169.803 276.052 169.834C276.068 169.865 276.091 169.888 276.119 169.905C276.147 169.921 276.178 169.929 276.212 169.929C276.246 169.929 276.277 169.921 276.305 169.905C276.333 169.888 276.356 169.865 276.373 169.834C276.389 169.803 276.398 169.766 276.398 169.725Z" fill="black"/>
</svg>
