<?xml version="1.0" encoding="UTF-8" standalone="no"?>
<svg
   width="605"
   height="440"
   viewBox="0 0 605 440"
   fill="none"
   version="1.1"
   id="svg10"
   sodipodi:docname="logo.svg"
   inkscape:version="1.4 (e7c3feb100, 2024-10-09)"
   xmlns:inkscape="http://www.inkscape.org/namespaces/inkscape"
   xmlns:sodipodi="http://sodipodi.sourceforge.net/DTD/sodipodi-0.dtd"
   xmlns="http://www.w3.org/2000/svg"
   xmlns:svg="http://www.w3.org/2000/svg">
  <sodipodi:namedview
     id="namedview10"
     pagecolor="#ffffff"
     bordercolor="#000000"
     borderopacity="0.25"
     inkscape:showpageshadow="2"
     inkscape:pageopacity="0.0"
     inkscape:pagecheckerboard="0"
     inkscape:deskcolor="#d1d1d1"
     inkscape:zoom="1"
     inkscape:cx="116.5"
     inkscape:cy="162"
     inkscape:window-width="1920"
     inkscape:window-height="1012"
     inkscape:window-x="0"
     inkscape:window-y="0"
     inkscape:window-maximized="1"
     inkscape:current-layer="svg10" />
  <path
     d="m 245,159.73162 v -51.52717 h 36.89044 v 11.2713 h -22.99431 v 8.85623 h 21.09404 v 11.27221 h -21.09404 v 8.85623 h 22.89377 v 11.2712 z m 71.37387,-35.42492 c -0.13272,-1.67712 -0.7581,-2.98582 -1.87413,-3.92508 -1.09995,-0.93927 -2.774,-1.4089 -5.02316,-1.4089 -1.43375,0 -2.6081,0.17611 -3.52405,0.52833 -0.89986,0.33603 -1.56647,0.79656 -1.99981,1.3836 -0.43334,0.58704 -0.65856,1.25809 -0.67465,2.01315 -0.0332,0.62044 0.0744,1.18218 0.32476,1.68521 0.26644,0.48684 0.68269,0.93117 1.24975,1.334 0.56606,0.38563 1.29098,0.73785 2.17376,1.05668 0.88377,0.31882 1.93345,0.60425 3.15003,0.85526 l 4.1987,0.90586 c 2.83231,0.60425 5.25641,1.40081 7.27231,2.39068 2.01691,0.98886 3.66582,2.15485 4.94876,3.49695 1.28293,1.32489 2.22503,2.8178 2.82427,4.47771 0.61633,1.66092 0.93304,3.47265 0.95013,5.43519 -0.0171,3.38764 -0.85864,6.25604 -2.52465,8.60421 -1.666,2.34817 -4.04889,4.1346 -7.14764,5.35929 -3.08266,1.22469 -6.78971,1.83703 -11.12213,1.83703 -4.44905,0 -8.33104,-0.66295 -11.64697,-1.98784 -3.29883,-1.32489 -5.8647,-3.36335 -7.69761,-6.11434 -1.81582,-2.7672 -2.73278,-6.30665 -2.74886,-10.61736 h 13.19634 c 0.0824,1.57691 0.47457,2.90181 1.17435,3.97569 0.69978,1.07287 1.6831,1.88663 2.94894,2.44027 1.28294,0.55364 2.80718,0.82995 4.57373,0.82995 1.48302,0 2.72473,-0.1842 3.72413,-0.55364 0.99941,-0.36842 1.7575,-0.88056 2.2743,-1.5344 0.51679,-0.65384 0.78323,-1.4008 0.79932,-2.23886 -0.0161,-0.78845 -0.27448,-1.47671 -0.77419,-2.06375 -0.48361,-0.60324 -1.28293,-1.13967 -2.39896,-1.60931 -1.11704,-0.48684 -2.6252,-0.93926 -4.52447,-1.3593 l -5.09856,-1.10728 c -4.5315,-0.98886 -8.10582,-2.64169 -10.72197,-4.95646 -2.59905,-2.33096 -3.89003,-5.50908 -3.87394,-9.53537 -0.0161,-3.27023 0.84959,-6.13054 2.59905,-8.57891 1.76655,-2.46557 4.20775,-4.38662 7.32359,-5.76212 3.13194,-1.37519 6.72335,-2.06284 10.77224,-2.06284 4.13134,0 7.70566,0.69605 10.72197,2.08815 3.0153,1.3927 5.33987,3.35423 6.9727,5.88762 1.64992,2.51618 2.48242,5.45949 2.49951,8.83093 z m 67.0696,3.22063 h -14.09621 c -0.10054,-1.17408 -0.36698,-2.23987 -0.80032,-3.19533 -0.41625,-0.95647 -0.99941,-1.77833 -1.74946,-2.46557 -0.73296,-0.70445 -1.62378,-1.2419 -2.67446,-1.61032 -1.04967,-0.38562 -2.24011,-0.57894 -3.57332,-0.57894 -2.33261,0 -4.30728,0.57084 -5.92403,1.71051 -1.59864,1.14069 -2.81522,2.77631 -3.64872,4.90686 -0.81642,2.12955 -1.22462,4.68824 -1.22462,7.67304 0,3.15383 0.41625,5.79552 1.24975,7.92608 0.8496,2.11335 2.07422,3.70646 3.67387,4.78034 1.59964,1.05667 3.52405,1.58501 5.77321,1.58501 1.28293,0 2.43315,-0.15992 3.44965,-0.47874 1.01649,-0.33502 1.89927,-0.81275 2.64932,-1.4332 0.74905,-0.62145 1.35734,-1.3674 1.82386,-2.23986 0.48362,-0.88866 0.80837,-1.88663 0.97527,-2.99391 l 14.09621,0.10121 c -0.1669,2.18015 -0.77519,4.40281 -1.82486,6.66697 -1.04968,2.24796 -2.54074,4.3269 -4.47419,6.23985 -1.91536,1.89473 -4.2902,3.42103 -7.12251,4.57892 -2.83231,1.15688 -6.1231,1.73582 -9.87237,1.73582 -4.6984,0 -8.91419,-1.01517 -12.64637,-3.04452 -3.71609,-2.02934 -6.65699,-5.01515 -8.8227,-8.95643 -2.14962,-3.94229 -3.22443,-8.76413 -3.22443,-14.46754 0,-5.7358 1.09994,-10.56675 3.29984,-14.49183 2.19888,-3.94128 5.16492,-6.91899 8.8971,-8.93113 3.73218,-2.02985 7.8977,-3.04462 12.49656,-3.04462 3.23247,0 6.20655,0.44443 8.92224,1.33349 2.71668,0.88927 5.09856,2.18886 7.14864,3.89938 2.04908,1.69432 3.699,3.78237 4.94876,6.26515 1.24975,2.48278 2.00785,5.32588 2.27429,8.52931 z m 18.01942,32.20429 h -14.99607 l 16.89534,-51.52717 h 18.9957 l 16.89434,51.52717 h -14.99507 l -11.19754,-37.33686 h -0.39916 z m -2.79913,-20.32884 h 28.19242 v 10.46654 h -28.19242 z m 45.51909,20.32884 v -51.52717 h 22.09345 c 3.79954,0 7.12351,0.75475 9.97191,2.26426 2.8494,1.51011 5.06538,3.63156 6.64895,6.36535 1.58255,2.7338 2.37383,5.92912 2.37383,9.58599 0,3.69026 -0.81641,6.88559 -2.44924,9.58598 -1.61574,2.70039 -3.89003,4.78034 -6.82289,6.23985 -2.91576,1.4585 -6.32318,2.18825 -10.22226,2.18825 h -13.19635 v -10.86837 h 10.39721 c 1.63283,0 3.02435,-0.28542 4.17357,-0.85526 1.1663,-0.58704 2.05812,-1.41801 2.67446,-2.49088 0.63342,-1.07388 0.95013,-2.34006 0.95013,-3.79957 0,-1.4757 -0.31671,-2.73379 -0.95013,-3.77427 -0.61634,-1.05668 -1.50816,-1.86133 -2.67446,-2.41497 -1.14922,-0.56984 -2.54074,-0.85526 -4.17357,-0.85526 h -4.89848 v 40.35607 z m 46.1867,0 V 108.20445 H 527.26 v 11.2713 h -22.99432 v 8.85623 h 21.09404 v 11.27221 h -21.09404 v 8.85623 h 22.89377 v 11.2712 z m -218.05186,86.03197 h -14.99608 l 16.89535,-51.52708 h 18.99469 l 16.89534,51.52708 h -14.99607 l -11.19654,-37.33686 h -0.40016 z m -2.79913,-20.32885 h 28.19241 v 10.46655 h -28.19241 z m 45.51808,20.32885 v -51.52708 h 22.09445 c 3.79854,0 7.12251,0.75506 9.97191,2.26416 2.84941,1.51012 5.06539,3.63156 6.64795,6.36536 1.58356,2.73379 2.37483,5.92912 2.37483,9.58598 0,3.69027 -0.81641,6.88559 -2.44924,9.58599 -1.61674,2.70039 -3.89103,4.78034 -6.82288,6.23984 -2.91577,1.4585 -6.32319,2.18825 -10.22227,2.18825 h -13.19634 v -10.86837 h 10.39721 c 1.63283,0 3.02334,-0.28542 4.17356,-0.85525 1.16631,-0.58705 2.05813,-1.41801 2.67446,-2.49088 0.63242,-1.07388 0.94913,-2.34007 0.94913,-3.79958 0,-1.4757 -0.31671,-2.73379 -0.94913,-3.77427 -0.61633,-1.05668 -1.50815,-1.86133 -2.67446,-2.41497 -1.15022,-0.56983 -2.54073,-0.85526 -4.17356,-0.85526 h -4.89949 v 40.35608 z m 46.18771,0 v -51.52708 h 36.88944 v 11.2712 h -22.99331 v 8.85623 h 21.09404 v 11.27222 h -21.09404 v 8.85623 h 22.89377 v 11.2712 z m 43.7817,0 v -51.52708 h 22.09344 c 3.79955,0 7.12352,0.69636 9.97292,2.08805 2.8484,1.39271 5.06539,3.39674 6.64794,6.01313 1.58256,2.61638 2.37384,5.75301 2.37384,9.40987 0,3.69027 -0.81642,6.80159 -2.44925,9.33396 -1.61573,2.53339 -3.89003,4.44533 -6.82288,5.73682 -2.91577,1.29149 -6.32319,1.93723 -10.22227,1.93723 h -13.19634 v -10.86938 h 10.39721 c 1.63283,0 3.02435,-0.2004 4.17356,-0.60323 1.16631,-0.42004 2.05813,-1.08198 2.67446,-1.98785 0.63343,-0.90586 0.95014,-2.08804 0.95014,-3.54755 0,-1.4757 -0.31671,-2.67509 -0.95014,-3.59816 -0.61633,-0.93927 -1.50815,-1.62651 -2.67446,-2.06274 -1.14921,-0.45243 -2.54073,-0.67915 -4.17356,-0.67915 h -4.89848 v 40.35608 z m 29.99114,-23.64968 12.79719,23.64968 H 432.69776 L 420.2022,222.11391 Z m 66.6071,-2.11437 c 0,5.73682 -1.10799,10.57586 -3.32397,14.51714 -2.21598,3.92508 -5.20715,6.9028 -8.97251,8.93214 -3.76636,2.01315 -7.96506,3.01922 -12.5971,3.01922 -4.66522,0 -8.88101,-1.01518 -12.64637,-3.04452 -3.74827,-2.04655 -6.73139,-5.03135 -8.94737,-8.95644 -2.19889,-3.94228 -3.29884,-8.76412 -3.29884,-14.46754 0,-5.7358 1.09995,-10.56674 3.29884,-14.49183 2.21598,-3.94127 5.1991,-6.91899 8.94737,-8.93113 3.76536,-2.03035 7.98115,-3.04452 12.64637,-3.04452 4.63204,0 8.83074,1.01417 12.5971,3.04452 3.76536,2.01214 6.75653,4.98986 8.97251,8.93113 2.21598,3.92509 3.32397,8.75603 3.32397,14.49183 z m -14.29629,0 c 0,-3.08601 -0.40821,-5.68519 -1.22462,-7.79955 -0.79932,-2.12955 -1.99076,-3.73986 -3.57432,-4.82994 -1.56547,-1.10728 -3.49892,-1.66092 -5.79835,-1.66092 -2.29943,0 -4.23992,0.55364 -5.82348,1.66092 -1.56547,1.09008 -2.75691,2.70039 -3.57332,4.82994 -0.80033,2.11436 -1.19949,4.71354 -1.19949,7.79955 0,3.08703 0.39916,5.69532 1.19949,7.82486 0.81641,2.11335 2.00785,3.72367 3.57332,4.83095 1.58356,1.09008 3.52405,1.63562 5.82348,1.63562 2.29943,0 4.23288,-0.54554 5.79835,-1.63562 1.58356,-1.10728 2.775,-2.7176 3.57432,-4.83095 0.81641,-2.12954 1.22462,-4.73783 1.22462,-7.82486 z m -215.66496,71.54014 v -11.2712 h 44.48752 v 11.2712 h -15.39624 v 40.25587 h -13.69605 v -40.25587 z m 49.71779,40.25587 v -51.52707 h 22.09345 c 3.79853,0 7.1225,0.69635 9.97191,2.08804 2.8494,1.39271 5.06539,3.39675 6.64794,6.01313 1.58356,2.61639 2.37484,5.75301 2.37484,9.40987 0,3.69027 -0.81641,6.80159 -2.44924,9.33397 -1.61674,2.53338 -3.89104,4.44532 -6.82289,5.73681 -2.91576,1.29149 -6.32318,1.93724 -10.22226,1.93724 h -13.19635 v -10.86938 h 10.39721 c 1.63283,0 3.02435,-0.20041 4.17357,-0.60324 1.1663,-0.42004 2.05812,-1.08198 2.67446,-1.98784 0.63342,-0.90587 0.94913,-2.08805 0.94913,-3.54756 0,-1.4757 -0.31571,-2.67508 -0.94913,-3.59816 -0.61634,-0.93926 -1.50816,-1.62651 -2.67446,-2.06274 -1.14922,-0.45243 -2.54074,-0.67915 -4.17357,-0.67915 h -4.89848 v 40.35608 z m 29.99115,-23.64968 12.79618,23.64968 h -15.09562 l -12.49656,-23.64968 z m 66.6071,-2.11436 c 0,5.73681 -1.109,10.57586 -3.32498,14.51713 -2.21598,3.92508 -5.20615,6.9028 -8.97251,8.93214 -3.76535,2.01315 -7.96405,3.01922 -12.5961,3.01922 -4.66522,0 -8.88101,-1.01518 -12.64637,-3.04452 -3.74927,-2.04655 -6.73139,-5.03135 -8.94737,-8.95643 -2.19989,-3.94229 -3.29984,-8.76413 -3.29984,-14.46754 0,-5.7358 1.09995,-10.56675 3.29984,-14.49183 2.21598,-3.94128 5.1981,-6.919 8.94737,-8.93113 3.76536,-2.03036 7.98115,-3.04452 12.64637,-3.04452 4.63205,0 8.83075,1.01416 12.5961,3.04452 3.76636,2.01213 6.75653,4.98985 8.97251,8.93113 2.21598,3.92508 3.32498,8.75603 3.32498,14.49183 z m -14.29629,0 c 0,-3.08602 -0.40821,-5.6852 -1.22462,-7.79956 -0.80033,-2.12954 -1.99177,-3.73986 -3.57433,-4.82993 -1.56647,-1.10729 -3.49891,-1.66093 -5.79835,-1.66093 -2.29943,0 -4.24092,0.55364 -5.82348,1.66093 -1.56647,1.09007 -2.75791,2.70039 -3.57432,4.82993 -0.79933,2.11436 -1.19949,4.71354 -1.19949,7.79956 0,3.08703 0.40016,5.69531 1.19949,7.82486 0.81641,2.11335 2.00785,3.72366 3.57432,4.83095 1.58256,1.09007 3.52405,1.63561 5.82348,1.63561 2.29944,0 4.23188,-0.54554 5.79835,-1.63561 1.58256,-1.10729 2.774,-2.7176 3.57433,-4.83095 0.81641,-2.12955 1.22462,-4.73783 1.22462,-7.82486 z m 15.05137,-25.76303 h 15.49577 l 9.99806,20.93309 h 0.39916 l 9.99704,-20.93309 h 15.49578 l -18.79461,35.32371 v 16.20336 h -13.79558 v -16.20336 z m 55.9163,51.52707 v -51.52707 h 36.88944 v 11.2712 h -22.99331 v 8.85623 h 21.09404 v 11.27221 h -21.09404 v 8.85623 h 22.89377 v 11.2712 z m 71.37387,-35.42493 c -0.13372,-1.67711 -0.75809,-2.98581 -1.87413,-3.92508 -1.09994,-0.93926 -2.775,-1.4089 -5.02416,-1.4089 -1.43275,0 -2.60709,0.17611 -3.52405,0.52834 -0.89987,0.33603 -1.56647,0.79655 -1.99881,1.3836 -0.43334,0.58704 -0.65856,1.25809 -0.67565,2.01314 -0.0332,0.62045 0.0754,1.18218 0.32576,1.68522 0.26644,0.48684 0.68269,0.93117 1.24976,1.334 0.56606,0.38563 1.29098,0.73785 2.17375,1.05667 0.88277,0.31883 1.93345,0.60425 3.14902,0.85526 l 4.1987,0.90587 c 2.83332,0.60425 5.25743,1.4008 7.27332,2.39068 2.0159,0.98886 3.66582,2.15484 4.94876,3.49694 1.28294,1.32489 2.22402,2.8178 2.82427,4.47771 0.61633,1.66093 0.93304,3.47266 0.94913,5.4352 -0.0161,3.38763 -0.85764,6.25604 -2.52364,8.60421 -1.66601,2.34816 -4.04889,4.13459 -7.14865,5.35928 -3.08166,1.22469 -6.78971,1.83704 -11.12113,1.83704 -4.44905,0 -8.33104,-0.66295 -11.64696,-1.98785 -3.29884,-1.32489 -5.86471,-3.36334 -7.69762,-6.11434 -1.81682,-2.76719 -2.73277,-6.30665 -2.74987,-10.61735 h 13.19635 c 0.0834,1.57691 0.47557,2.9018 1.17535,3.97568 0.69978,1.07287 1.6821,1.88663 2.94894,2.44028 1.28294,0.55364 2.80718,0.82995 4.57373,0.82995 1.48302,0 2.72373,-0.18421 3.72414,-0.55364 0.9994,-0.36842 1.7575,-0.88056 2.27429,-1.53441 0.51579,-0.65384 0.78324,-1.4008 0.79932,-2.23885 -0.0161,-0.78846 -0.27448,-1.47671 -0.77418,-2.06376 -0.48362,-0.60323 -1.28294,-1.13967 -2.39998,-1.6093 -1.11603,-0.48684 -2.62419,-0.93927 -4.52345,-1.3593 l -5.09857,-1.10729 c -4.5325,-0.98886 -8.10582,-2.64168 -10.72196,-4.95645 -2.59906,-2.33096 -3.89104,-5.50908 -3.87395,-9.53538 -0.0171,-3.27022 0.84959,-6.13053 2.59905,-8.5789 1.76655,-2.46558 4.20675,-4.38662 7.32259,-5.76212 3.13294,-1.3755 6.72335,-2.06274 10.77224,-2.06274 4.13234,0 7.70666,0.69635 10.72197,2.08804 3.0163,1.39271 5.34087,3.35424 6.9737,5.88763 1.64891,2.51618 2.48242,5.45948 2.49851,8.83092 z"
     fill="#ffdd00"
     id="path2"
     style="stroke-width:1.00878" />
  <path
     id="path25"
     style="fill:#ffdd00;stroke-width:0.997609"
     d="m 127.46339,45 c -13.94257,-0.0016 -25.10986,4.03695 -31.99166,7.383059 v 0.002 c -4.071894,1.981063 -5.683549,7.625867 -3.395677,11.930088 h 0.002 l 12.853817,24.17659 v 0.002 c 1.72646,3.245609 5.1123,5.287287 8.77589,5.287287 h 7.68741 v 5.050951 C 98.8356,101.88183 81.988082,121.21173 81.953226,144.08544 c -4e-5,11.042 3.895604,21.17054 10.379455,29.07323 -0.612715,4.24354 -7.674988,52.32623 -23.207996,117.98638 -12.775274,13.60546 -24.912508,18.9311 -24.084615,51.60719 1.359123,-23.8558 25.226539,-40.5427 36.990905,-45.90388 L 105.63932,184.21755 c 1.25821,0.69241 2.56279,1.30774 3.88938,1.88092 L 88.021455,296.52404 h 21.079625 c -0.62375,1.00563 -1.04115,2.05947 -1.18372,3.13878 -0.21197,1.74406 0.22815,3.50604 1.39948,5.1701 0.5583,0.78803 1.27252,1.55325 2.16918,2.28328 -0.208,0.168 -0.41138,0.34068 -0.60643,0.51368 -1.96251,1.76306 -3.20524,3.95791 -3.32765,6.55296 -0.0458,1.04605 0.089,2.14414 0.44123,3.28917 0.61701,2.02507 1.96219,3.70911 3.78636,5.08415 -0.96433,0.78303 -1.80369,1.67184 -2.47047,2.67587 -0.0358,0.054 -0.0666,0.10422 -0.0932,0.15822 -1.25991,1.84006 -1.80371,3.87167 -1.39171,5.93574 0.34135,1.70105 1.2688,3.16188 2.57349,4.42593 0.30252,0.28801 0.62766,0.57181 0.96602,0.84182 -0.19903,0.15901 -0.39497,0.32225 -0.58505,0.49026 -1.96251,1.76406 -3.20524,3.95886 -3.32765,6.55295 -0.0458,1.04603 0.087,2.14413 0.43927,3.28917 0.61702,2.02507 1.9622,3.71206 3.78637,5.08611 -0.96433,0.78303 -1.80175,1.67184 -2.46852,2.67587 -0.0269,0.036 -0.0481,0.0772 -0.07,0.11719 -0.59313,0.86403 -1.0304,1.77576 -1.26924,2.72079 -0.45679,1.80407 -0.23064,3.67694 0.90188,5.508 0.60905,0.98903 1.48369,1.96278 2.659,2.88682 -0.19903,0.16 -0.38829,0.32725 -0.57339,0.49025 -1.9625,1.76406 -3.20817,3.95982 -3.32959,6.5549 -0.0785,1.75684 0.34316,3.05273 0.79887,3.92201 1.3462,2.66143 4.12977,6.21546 8.46101,7.45923 3.71004,1.06504 8.30449,7.2796 9.01107,10.65271 0.52944,-3.19611 -4.2419,-13.31651 -8.48238,-14.91456 -6.91608,-3.15941 -7.24062,-8.04395 -3.8855,-11.06483 0.39808,-0.35401 0.84101,-0.69283 1.32368,-1.00784 5.96446,3.08181 15.48271,4.61135 22.6482,2.64265 1.97743,-0.54301 3.47287,-1.33809 4.24314,-2.24812 1.31364,-1.55005 1.16583,-3.13199 -0.89022,-4.50406 -1.75053,-1.16903 -5.73725,-2.1533 -12.72941,-2.49032 -3.38163,-0.163 -6.95218,0.26896 -10.12483,1.252 -1.08575,0.33601 -2.12306,0.72838 -3.09635,1.1934 -1.34051,-0.87303 -2.24788,-1.75682 -2.78923,-2.63485 -0.59613,-0.96603 -0.72373,-1.93254 -0.48788,-2.85557 0.26472,-1.02603 0.95916,-2.04921 1.95733,-2.99424 0.49958,-0.46801 1.07104,-0.91792 1.69104,-1.33793 1.1355,0.51202 2.34085,0.95139 3.59976,1.3184 3.28908,0.95803 6.93454,1.45039 10.32115,1.52739 3.43836,0.077 6.65433,-0.26996 9.0169,-1.00198 2.43422,-0.75003 4.12097,-1.96679 4.60662,-3.63684 0.28362,-0.99104 0.0126,-1.88518 -0.73279,-2.6622 -0.83595,-0.87403 -2.429,-1.56951 -4.48804,-2.02155 -1.81322,-0.396 -4.08351,-0.64743 -6.54061,-0.69143 -3.00546,-0.05 -6.31953,0.20762 -9.49118,0.89065 -0.18312,-0.012 -0.37649,0.003 -0.56756,0.0449 -1.70177,0.38801 -3.3646,0.95465 -4.89818,1.64067 -0.32841,0.14701 -0.65724,0.29518 -0.97769,0.45119 -1.75749,-1.07004 -3.0412,-2.39236 -3.52785,-3.98841 -0.22789,-0.75603 -0.3244,-1.4631 -0.29155,-2.12313 0.0756,-1.58505 0.88079,-2.9576 2.15363,-4.10364 0.39808,-0.35401 0.84101,-0.69284 1.32368,-1.00785 l 0.13606,0.0703 c 8.05203,4.04913 17.37899,3.98239 22.51215,2.57234 1.97643,-0.54302 3.47286,-1.33808 4.24314,-2.24811 1.31364,-1.55006 1.16582,-3.13202 -0.89023,-4.50406 -1.75052,-1.16904 -5.73725,-2.15527 -12.72941,-2.49228 -3.38164,-0.163 -6.95219,0.26897 -10.12483,1.252 -1.08575,0.33602 -2.12306,0.73034 -3.09635,1.19535 -0.62099,-0.40601 -1.17357,-0.83599 -1.64827,-1.29301 -0.81705,-0.78403 -1.37949,-1.64794 -1.56858,-2.58798 -0.31746,-1.59905 0.53679,-3.29517 2.14003,-4.78922 0.48167,-0.45001 1.03074,-0.87938 1.62884,-1.27739 1.12655,0.51202 2.3292,0.94749 3.58811,1.31451 3.28908,0.95803 6.93358,1.45133 10.3192,1.52934 3.43935,0.077 6.65434,-0.26996 9.01691,-1.00199 2.43422,-0.75002 4.12096,-1.96773 4.60661,-3.63879 0.28362,-0.99003 0.0155,-1.88617 -0.73084,-2.6622 -0.83595,-0.87403 -2.42901,-1.56858 -4.48805,-2.0196 -1.81322,-0.39701 -4.08051,-0.65438 -6.5406,-0.69338 -3.2652,-0.057 -6.90094,0.26009 -10.31143,1.08012 -1.04196,0.23601 -2.05426,0.53974 -3.01859,0.88675 -0.90264,0.32001 -1.77275,0.68095 -2.59876,1.08596 -1.75749,-1.07003 -3.0412,-2.39431 -3.52784,-3.99036 -0.2279,-0.75603 -0.32635,-1.4631 -0.29351,-2.12312 0.0756,-1.58405 0.8808,-2.95861 2.15364,-4.10365 0.39808,-0.35501 0.84101,-0.69284 1.32367,-1.00785 l 0.13606,0.0703 c 8.05203,4.04914 17.37999,3.98239 22.51215,2.57235 1.97644,-0.54302 3.47187,-1.33707 4.24314,-2.24812 1.31364,-1.54905 1.16583,-3.13106 -0.89022,-4.50211 -1.75451,-1.16504 -5.74038,-2.1611 -12.72359,-2.49812 -3.38263,-0.16201 -6.95412,0.26896 -10.12677,1.25199 -1.07281,0.33101 -2.1086,0.72557 -3.07691,1.18559 -1.0748,-0.71903 -1.86508,-1.46866 -2.40049,-2.22469 -0.65782,-0.93003 -0.91127,-1.87169 -0.80081,-2.76572 0.11047,-0.94803 0.62169,-1.90079 1.46362,-2.80282 0.23772,-0.25471 0.52603,-0.49752 0.81442,-0.74027 h 48.42191 L 142.69048,187.14343 c 1.6257,-0.5862 3.21173,-1.25697 4.74851,-2.01374 l 21.26233,111.01348 c 11.66952,5.56719 35.24372,22.67068 36.18815,46.54648 1.39524,-32.6561 -10.64735,-38.19381 -23.18467,-52.02127 -13.25617,-60.72929 -19.42787,-105.33106 -20.78807,-115.65231 7.46228,-8.14565 12.05692,-18.98621 12.05688,-30.93072 -0.007,-23.48082 -17.70827,-43.1412 -40.95803,-45.489805 V 93.78093 h 9.20351 c 3.66358,0 7.04942,-2.041678 8.77589,-5.287287 v -0.002 L 162.84878,64.3151 c 2.28787,-4.304587 0.67763,-9.949398 -3.39567,-11.930088 C 152.57147,49.040168 141.40416,45.001503 127.46339,45 Z m 0,10.000335 c 11.06711,0.0012 20.0485,2.976263 26.03223,5.68769 l -12.27653,23.090617 v 0.002 h -10.23951 c -0.96618,-1.325323 -2.51385,-2.195387 -4.27424,-2.195387 -1.75979,0 -3.30815,0.870064 -4.27424,2.195387 h -8.72146 -0.002 v -0.002 L 101.43112,60.684119 c 5.98353,-2.711973 14.96631,-5.685063 26.03222,-5.683784 z m -0.75805,50.974365 c 20.52673,3.8e-4 37.16653,16.72214 37.16584,37.3489 -0.13521,17.97012 -12.98706,33.29566 -30.58829,36.47583 l 19.96976,112.1522 H 131.87952 114.27137 95.605841 L 117.31135,179.42637 c -16.34846,-4.291 -27.759066,-19.12349 -27.773794,-36.10277 -6.9e-4,-20.62752 16.640304,-37.3496 37.167784,-37.3489 z m 0.0797,200.20006 c 0.36608,0.002 0.73,0.0117 1.09238,0.0293 5.55412,0.26401 8.79386,0.87178 10.30753,1.5938 -0.42196,0.21601 -1.02235,0.43463 -1.77073,0.64064 -3.93894,1.08204 -10.75633,1.23678 -17.19219,-1.1973 2.03242,-0.61277 4.25414,-0.97021 6.46093,-1.05081 0.3678,-0.0134 0.73601,-0.018 1.10208,-0.0156 z m 3.13328,14.79346 c 0.36339,-0.004 0.72373,-0.003 1.07876,0.002 2.19239,0.042 4.18386,0.25744 5.75924,0.60745 0.92651,0.20001 1.6531,0.42436 2.11088,0.65236 -0.35827,0.26901 -0.98185,0.53708 -1.79989,0.78909 -1.98041,0.61102 -4.75421,0.90202 -7.78654,0.83402 -3.08208,-0.073 -6.37831,-0.51407 -9.32206,-1.3731 l -0.12635,-0.0352 c 0.59611,-0.18601 1.20776,-0.34924 1.8407,-0.49025 0.15127,-0.029 0.28854,-0.0806 0.41791,-0.14063 2.56011,-0.55914 5.28358,-0.81646 7.82735,-0.84573 z m -3.23824,14.66651 c 0.36574,0.002 0.73049,0.0122 1.09237,0.0293 5.55412,0.26401 8.79193,0.87078 10.3056,1.59381 -0.42196,0.216 -1.02235,0.43464 -1.77073,0.64065 -3.93894,1.08203 -10.7544,1.23677 -17.19025,-1.19731 2.03242,-0.61277 4.25664,-0.96765 6.46286,-1.04887 0.36771,-0.0136 0.73442,-0.0196 1.10015,-0.0176 z m 3.53757,14.79933 c 0.22965,3.5e-4 0.45803,0.002 0.68419,0.006 2.19239,0.042 4.18192,0.25648 5.7573,0.60549 0.92651,0.201 1.65309,0.42531 2.11087,0.65432 -0.35827,0.26801 -0.98184,0.53513 -1.79988,0.78714 -1.98041,0.61002 -4.75421,0.90201 -7.78654,0.834 -3.08208,-0.072 -6.37832,-0.51405 -9.32207,-1.37308 -0.0667,-0.022 -0.12963,-0.0385 -0.19631,-0.0605 3.29996,-1.03504 7.10777,-1.45855 10.55244,-1.45317 z m -3.46759,14.53368 c 0.36573,0.002 0.7305,0.0102 1.09236,0.0273 5.55413,0.26401 8.79387,0.87273 10.30754,1.59576 -0.42196,0.21601 -1.02234,0.43269 -1.77072,0.6387 -3.93993,1.08204 -10.75539,1.23677 -17.19025,-1.19731 2.03242,-0.61277 4.25469,-0.9657 6.46093,-1.04691 0.3677,-0.0134 0.7344,-0.0192 1.10014,-0.0176 z"
     sodipodi:nodetypes="cccccccsccccccccccccccccccsccccccccccccccccccccccccscccccccccccccccccccccccccscccccccccccccccccccccscccccccscccccccccccsccccccccccscccccccsccccccccsccccssscccccccccssccccssscccccccsscccccsccccsc" />
  <defs
     id="defs10">
    <clipPath
       id="clip0_29_128">
      <rect
         width="73.896599"
         height="77.9702"
         fill="#ffffff"
         transform="rotate(44.3425,-264.9528,298.25384)"
         id="rect10"
         x="0"
         y="0" />
    </clipPath>
  </defs>
</svg>
